<?xml version="1.0" standalone="no"?>
<!DOCTYPE svg PUBLIC "-//W3C//DTD SVG 20010904//EN"
 "http://www.w3.org/TR/2001/REC-SVG-20010904/DTD/svg10.dtd">
<svg version="1.0" xmlns="http://www.w3.org/2000/svg"
 width="1024.000000pt" height="489.000000pt" viewBox="0 0 1024.000000 489.000000"
 preserveAspectRatio="xMidYMid meet">

<g transform="translate(0.000000,489.000000) scale(0.100000,-0.100000)"
fill="#000000" stroke="none">
<path d="M4550 3511 c0 -14 10 -20 40 -24 60 -8 89 -31 96 -77 5 -30 14 -44
43 -63 20 -13 66 -55 102 -91 l67 -67 3 115 c5 142 18 166 97 180 40 8 52 14
52 28 0 17 -15 18 -250 18 -237 0 -250 -1 -250 -19z"/>
<path d="M5240 3511 c0 -14 10 -20 40 -24 53 -7 70 -22 70 -62 0 -39 -24 -73
-151 -215 -52 -58 -113 -129 -137 -157 l-43 -52 31 -62 32 -62 33 69 c22 45
30 73 24 80 -10 12 89 130 251 297 103 107 148 139 225 159 47 12 64 23 65 41
0 4 -99 7 -220 7 -208 0 -220 -1 -220 -19z"/>
<path d="M4479 3396 c-52 -30 -61 -110 -16 -141 60 -42 141 13 98 66 -13 17
-23 20 -37 14 -18 -8 -18 -8 1 -13 27 -6 36 -22 24 -44 -10 -18 -45 -24 -65
-10 -39 26 -31 96 13 113 41 15 68 10 111 -21 29 -21 42 -26 42 -16 0 44 -120
80 -171 52z"/>
<path d="M4611 3274 c-45 -37 -80 -68 -79 -69 2 -2 35 -25 75 -52 170 -115
309 -270 393 -439 27 -55 50 -104 50 -109 0 -4 -35 26 -78 67 -125 119 -292
212 -457 254 -38 10 -73 21 -77 24 -5 3 16 29 45 58 l53 52 79 -31 c72 -27
165 -74 235 -118 23 -15 24 -15 11 2 -24 30 -155 106 -246 143 l-86 35 -85
-77 -85 -78 96 -23 c165 -39 309 -108 443 -210 82 -62 108 -92 41 -46 -119 82
-305 156 -474 189 l-84 17 -65 -64 c-54 -52 -63 -65 -50 -72 14 -8 10 -15 -21
-47 l-36 -37 183 -1 c255 -1 421 -23 599 -82 95 -31 86 -32 236 14 147 45 244
57 490 63 l233 6 -31 38 c-26 33 -28 39 -13 39 13 0 -3 21 -51 70 -38 39 -77
70 -86 70 -33 0 -245 -58 -325 -89 -72 -28 -136 -62 -219 -116 -16 -11 -26
-14 -21 -7 15 25 170 134 240 169 77 39 246 97 316 108 l45 8 -80 73 c-44 41
-87 74 -95 74 -35 0 -179 -65 -278 -126 l-44 -26 18 27 c25 38 153 146 241
204 l73 48 -81 62 c-44 34 -84 61 -89 59 -6 -2 -36 -25 -67 -53 -128 -110
-226 -244 -288 -396 -26 -65 -36 -79 -41 -64 -4 11 -24 57 -44 102 -70 150
-156 265 -279 372 l-59 51 -81 -66z m143 -21 c69 -60 136 -138 193 -226 41
-62 60 -99 115 -226 l19 -45 33 76 c74 170 171 308 291 413 l64 56 55 -41 c31
-24 56 -46 56 -49 0 -4 -33 -30 -72 -57 -101 -68 -236 -205 -302 -307 -57 -86
-74 -121 -106 -209 l-16 -47 -32 77 c-36 88 -85 173 -144 250 -57 74 -193 200
-266 247 -34 22 -62 42 -61 45 0 7 102 89 111 89 3 1 31 -20 62 -46z m981
-300 c0 -2 -41 -14 -91 -28 -177 -52 -345 -146 -463 -262 -36 -34 -66 -61 -67
-60 -6 5 77 170 111 221 26 40 53 64 103 94 91 53 164 90 237 117 l60 23 56
-52 c31 -28 55 -52 54 -53z m-1143 -164 c109 -31 303 -122 353 -164 29 -24 29
-24 -37 5 -133 59 -315 101 -502 115 l-88 7 38 40 c37 38 41 39 86 33 26 -3
94 -19 150 -36z m1222 2 l38 -39 -88 -6 c-181 -13 -404 -65 -516 -122 -61 -31
-71 -30 -28 1 92 68 291 152 445 189 94 22 107 20 149 -23z"/>
<path d="M4177 2613 c-25 -24 3 -28 206 -28 280 -1 528 -31 582 -71 68 -50
167 -52 228 -4 52 41 307 73 590 74 188 1 217 3 215 16 -3 12 -31 16 -163 18
-277 6 -611 -36 -667 -83 -43 -37 -119 -35 -179 4 -46 30 -142 48 -369 71
-108 11 -433 13 -443 3z"/>
<path d="M4690 2474 c-1 -81 -13 -141 -33 -161 -8 -8 -36 -17 -63 -21 -35 -5
-50 -12 -52 -25 -3 -16 15 -17 252 -17 243 0 256 1 256 19 0 15 -10 19 -46 24
-68 7 -84 28 -96 128 -5 46 -15 87 -20 90 -6 4 -34 10 -62 13 -28 4 -70 9 -93
12 l-43 6 0 -68z"/>
<path d="M5378 2529 c-31 -4 -71 -12 -88 -16 l-31 -8 62 -84 c68 -91 131 -143
196 -162 23 -6 95 -12 160 -13 105 -1 118 1 121 17 2 10 -4 19 -15 23 -86 27
-172 94 -254 200 -45 59 -45 59 -151 43z"/>
<path d="M3680 1153 c-37 -7 -90 -51 -106 -89 -49 -117 23 -234 143 -234 88 0
143 41 163 121 22 89 -23 175 -106 198 -40 11 -51 12 -94 4z m75 -23 c35 -13
57 -70 58 -145 1 -100 -47 -159 -111 -137 -39 13 -62 52 -69 114 -7 74 3 125
32 154 26 26 49 30 90 14z"/>
<path d="M3248 1138 c21 -11 22 -16 22 -143 0 -126 -1 -133 -22 -148 -22 -15
-19 -16 52 -16 74 -1 75 0 52 17 -20 16 -23 25 -20 72 2 29 8 55 14 57 6 2 33
-30 58 -72 l47 -75 52 0 51 0 -31 28 c-17 15 -51 58 -77 95 l-47 69 46 54 c26
30 53 54 60 54 8 0 17 5 20 10 4 6 -16 10 -52 10 -53 -1 -56 -2 -39 -15 19
-14 19 -15 1 -37 -41 -49 -89 -98 -97 -98 -4 0 -8 26 -8 59 0 49 3 61 23 74
21 15 18 16 -53 16 -61 0 -71 -2 -52 -11z"/>
<path d="M3943 1137 c15 -12 17 -33 17 -151 0 -114 -2 -136 -15 -136 -8 0 -15
-4 -15 -10 0 -6 28 -10 65 -10 63 0 86 12 45 23 -17 4 -20 14 -20 55 l0 49 51
7 c96 13 139 90 85 153 -23 27 -28 28 -128 31 -89 2 -101 1 -85 -11z m149 -24
c42 -38 8 -139 -45 -131 -19 3 -22 10 -25 62 -2 32 -1 65 2 72 7 19 46 17 68
-3z"/>
<path d="M4207 1143 c-10 -9 -9 -73 1 -73 4 0 13 14 19 30 10 27 16 30 52 30
l41 0 0 -124 c0 -132 -4 -156 -26 -156 -8 0 -14 -4 -14 -10 0 -6 30 -10 73 -9
68 0 71 1 50 16 -22 15 -23 22 -23 149 l0 134 36 0 c31 0 37 -4 47 -30 16 -42
27 -37 27 10 l0 40 -138 0 c-76 0 -142 -3 -145 -7z"/>
<path d="M4580 1004 c-38 -100 -61 -148 -72 -151 -36 -10 -16 -23 35 -23 51 0
52 1 31 18 -20 15 -21 20 -9 52 11 34 13 35 65 35 52 0 53 0 66 -38 11 -32 11
-39 -1 -44 -34 -12 -11 -23 52 -23 l66 0 -20 23 c-11 12 -44 84 -73 160 -38
98 -58 137 -69 137 -12 0 -32 -40 -71 -146z m90 -36 c0 -5 -18 -8 -41 -8 -45
0 -45 1 -12 80 l15 35 19 -50 c10 -27 19 -53 19 -57z"/>
<path d="M4812 1127 c14 -12 44 -56 66 -97 34 -66 38 -81 34 -127 -3 -37 -8
-53 -18 -53 -8 0 -14 -4 -14 -10 0 -6 29 -10 68 -10 58 1 65 2 50 14 -14 10
-18 28 -18 70 0 47 7 70 36 124 20 37 48 77 63 89 l26 23 -54 0 c-49 0 -53 -1
-36 -14 19 -14 19 -15 -5 -65 -37 -80 -43 -80 -80 -9 -31 58 -31 62 -14 75 15
11 8 13 -57 13 l-74 0 27 -23z"/>
<path d="M5278 1134 c21 -14 22 -22 22 -143 0 -122 -1 -129 -22 -144 -22 -15
-19 -16 52 -16 61 0 71 2 53 11 -21 10 -23 18 -23 80 l0 69 68 -3 67 -3 3 -60
c3 -52 0 -61 -20 -77 -23 -17 -22 -18 52 -17 71 0 74 1 53 16 -22 15 -23 22
-23 148 0 127 1 132 23 143 18 9 8 11 -53 11 -70 1 -73 0 -52 -15 18 -12 22
-25 22 -70 l0 -54 -70 0 -70 0 0 58 c0 51 3 60 23 70 18 9 8 11 -53 11 -70 1
-73 0 -52 -15z"/>
<path d="M5648 1134 c20 -14 22 -23 22 -115 0 -154 23 -190 122 -191 97 0 127
47 127 201 1 77 4 96 19 107 15 12 10 13 -38 13 -47 0 -52 -2 -32 -11 21 -10
22 -17 22 -114 0 -56 -4 -114 -9 -127 -13 -34 -63 -53 -100 -38 -41 18 -51 49
-51 161 0 91 2 100 22 114 21 15 18 16 -52 16 -70 0 -73 -1 -52 -16z"/>
<path d="M6003 1136 c15 -11 17 -31 17 -150 0 -114 -2 -136 -15 -136 -8 0 -15
-4 -15 -10 0 -6 28 -10 65 -10 37 0 65 4 65 10 0 6 -7 10 -15 10 -12 0 -15 14
-15 65 0 36 4 65 9 65 5 0 30 -34 57 -75 l49 -75 50 0 c49 0 50 1 29 18 -12 9
-47 52 -78 95 l-57 77 43 50 c23 27 55 54 70 59 42 15 34 21 -28 21 -48 0 -55
-2 -44 -15 14 -17 -5 -48 -64 -104 l-36 -35 0 63 c0 49 4 67 18 77 15 12 7 13
-53 13 -60 0 -68 -1 -52 -13z"/>
<path d="M6327 1138 c20 -10 22 -19 25 -130 l3 -120 33 -29 c27 -25 41 -29 88
-29 102 0 124 34 124 195 0 96 1 103 23 113 18 9 12 11 -38 11 -48 0 -56 -2
-39 -11 17 -8 23 -22 28 -69 8 -82 -3 -175 -24 -194 -31 -28 -74 -29 -106 -2
-28 25 -29 28 -32 133 -4 103 -3 108 20 126 23 17 22 18 -52 17 -60 0 -71 -2
-53 -11z"/>
<path d="M6688 1133 c21 -15 22 -22 22 -143 0 -121 -1 -128 -22 -143 -22 -15
-20 -16 45 -16 63 -1 86 9 52 23 -20 7 -22 126 -2 126 6 0 33 -34 59 -75 l47
-75 46 0 c25 0 45 2 45 4 0 2 -15 19 -32 38 -18 19 -52 62 -75 95 l-43 61 65
61 66 61 -53 0 c-47 -1 -51 -2 -35 -14 17 -13 15 -18 -34 -73 -29 -32 -56 -59
-61 -61 -4 -2 -8 23 -8 57 0 51 3 62 22 75 21 15 18 16 -52 15 -71 0 -74 -1
-52 -16z"/>
</g>
</svg>
